<svg fill="#1d5896" height="512pt" viewBox="0 -4 512.00006 512" width="512pt" xmlns="http://www.w3.org/2000/svg">
    <path d="m309.328125 141.753906c-.054687-.089844-.109375-.179687-.167969-.269531-1.335937-2.054687-3.105468-3.695313-5.148437-4.851563v-47.117187h33.078125v18.839844c0 6.679687 5.4375 12.117187 12.121094 12.117187h73.417968c6.683594 0 12.121094-5.4375 12.121094-12.117187v-8.839844c0-4.140625-3.359375-7.5-7.5-7.5-4.144531 0-7.5 3.359375-7.5 7.5v5.957031h-67.660156v-15.957031h21.257812c7.34375 0 13.320313-5.976563 13.320313-13.320313v-17.636718h33.082031v5.957031c0 4.140625 3.355469 7.5 7.5 7.5 4.140625 0 7.5-3.359375 7.5-7.5v-8.839844c0-6.679687-5.4375-12.117187-12.121094-12.117187h-35.960937v-17.636719c0-7.34375-5.976563-13.320313-13.320313-13.320313h-69.335937v-5.101562c0-4.140625-3.359375-7.5-7.5-7.5-4.144531 0-7.5 3.359375-7.5 7.5v129.3125c-2.085938 1.246094-3.863281 3.007812-5.15625 5.1875l-59.292969 99.878906-28.386719-47.949218c-.054687-.089844-.109375-.179688-.164062-.269532-5.5625-8.554687-18.207031-8.332031-23.4375.476563l-170.546875 287.3125c-5.660156 9.53125 1.199218 21.59375 12.292968 21.59375h264.691407c4.140625 0 7.5-3.359375 7.5-7.5 0-4.144531-3.359375-7.5-7.5-7.5h-183.128907c4.46875-7.527344 110.550782-186.238281 118.898438-200.296875l12 14.9375c5.292969 6.585937 14.734375 6.582031 20.023438 0l10.785156-13.425782 28.085937 34.953126c5.707031 7.113281 15.828125 7.101562 21.535157 0l28.082031-34.953126 10.785156 13.425782c5.292969 6.585937 14.738281 6.582031 20.023437 0l12.128907-15.09375 118.667969 200.453125h-182.886719c-4.144531 0-7.5 3.355469-7.5 7.5 0 4.140625 3.355469 7.5 7.5 7.5h183.0625c11.546875 0 18.707031-12.550781 12.820312-22.496094zm-5.316406-114.152344h67.65625v46.914063h-67.65625zm-225.570313 460.441407h-62.882812l112.152344-188.9375 2.875 3.578125c5.289062 6.585937 14.734374 6.582031 20.019531 0l10.789062-13.425782 20.152344 25.085938c-4.441406 7.488281-97.34375 163.988281-103.105469 173.699219zm111.28125-187.472657-19.507812-24.28125c-4.535156-5.644531-13.113282-5.636718-17.640625 0l-11.980469 14.910157-4.710938-5.863281 48.550782-81.789063 31.402344 53.039063zm166.367188-9.375-11.976563-14.90625c-4.535156-5.644531-13.113281-5.636718-17.640625 0l-30.03125 37.375-30.027344-37.375c-4.535156-5.644531-13.117187-5.632812-17.644531 0l-11.976562 14.910157-13.835938-17.222657 73.707031-124.167968 73.402344 123.992187zm0 0"/>
</svg>