<svg fill="#1d5896" height="480pt" viewBox="0 -48 480 480" width="480pt" xmlns="http://www.w3.org/2000/svg"><path d="m472 320h-16v-248c-.027344-22.082031-17.917969-39.972656-40-40h-48v16h48c13.253906 0 24 10.746094 24 24v248h-400v-248c0-13.253906 10.746094-24 24-24h48v-16h-48c-22.082031.027344-39.972656 17.917969-40 40v248h-16c-4.417969 0-8 3.582031-8 8v32c0 13.253906 10.746094 24 24 24h432c13.253906 0 24-10.746094 24-24v-32c0-4.417969-3.582031-8-8-8zm-8 40c0 4.417969-3.582031 8-8 8h-432c-4.417969 0-8-3.582031-8-8v-24h448zm0 0"/><path d="m208 344h64v16h-64zm0 0"/><path d="m162.34375 149.65625 24 24 11.3125-11.3125-18.34375-18.34375 18.34375-18.34375-11.3125-11.3125-24 24c-3.121094 3.125-3.121094 8.1875 0 11.3125zm0 0"/><path d="m293.65625 173.65625 24-24c3.121094-3.125 3.121094-8.1875 0-11.3125l-24-24-11.3125 11.3125 18.34375 18.34375-18.34375 18.34375zm0 0"/><path d="m216.566406 181.027344 32.007813-79.992188 14.863281 5.945313-32.007812 79.996093zm0 0"/><path d="m139.375 94.824219c-2.011719 4.152343-3.769531 8.429687-5.253906 12.800781l-31.257813 4.464844c-3.9375.5625-6.859375 3.933594-6.863281 7.910156v48c0 3.980469 2.925781 7.355469 6.863281 7.921875l31.257813 4.460937c1.484375 4.371094 3.242187 8.648438 5.253906 12.800782l-18.910156 25.214844c-2.390625 3.1875-2.070313 7.644531.742187 10.457031l33.945313 33.945312c2.8125 2.8125 7.269531 3.132813 10.457031.742188l25.214844-18.910157c4.152343 2.011719 8.429687 3.769532 12.800781 5.253907l4.464844 31.257812c.566406 3.933594 3.9375 6.851563 7.910156 6.855469h48c3.980469 0 7.355469-2.925781 7.921875-6.863281l4.460937-31.257813c4.371094-1.484375 8.648438-3.242187 12.800782-5.253906l25.214844 18.910156c3.1875 2.390625 7.644531 2.070313 10.457031-.742187l33.945312-33.945313c2.8125-2.8125 3.132813-7.269531.742188-10.457031l-18.910157-25.214844c2.011719-4.152343 3.769532-8.429687 5.253907-12.800781l31.257812-4.464844c3.933594-.566406 6.851563-3.9375 6.855469-7.910156v-48c0-3.980469-2.925781-7.355469-6.863281-7.921875l-31.257813-4.460937c-1.484375-4.371094-3.242187-8.648438-5.253906-12.800782l18.910156-25.214844c2.390625-3.1875 2.070313-7.644531-.742187-10.457031l-33.945313-33.945312c-2.8125-2.8125-7.269531-3.132813-10.457031-.742188l-25.214844 18.910157c-4.152343-2.011719-8.429687-3.769532-12.800781-5.253907l-4.453125-31.25c-.566406-3.9375-3.941406-6.863281-7.921875-6.863281h-48c-3.980469 0-7.355469 2.925781-7.921875 6.863281l-4.460937 31.257813c-4.371094 1.484375-8.648438 3.242187-12.800782 5.253906l-25.214844-18.910156c-3.1875-2.390625-7.644531-2.070313-10.457031.742187l-33.945312 33.945313c-2.8125 2.8125-3.132813 7.269531-.742188 10.457031zm22.175781-53.398438 23.6875 17.757813c2.511719 1.886718 5.894531 2.125 8.648438.617187 6.09375-3.324219 12.535156-5.96875 19.203125-7.898437 3.011718-.875 5.230468-3.4375 5.679687-6.542969l4.167969-29.359375h34.125l4.195312 29.359375c.445313 3.105469 2.664063 5.667969 5.679688 6.542969 6.667969 1.929687 13.105469 4.574218 19.199219 7.898437 2.753906 1.507813 6.136719 1.269531 8.648437-.617187l23.6875-17.757813 24.128906 24.125-17.800781 23.6875c-1.886719 2.511719-2.125 5.894531-.617187 8.648438 3.320312 6.09375 5.96875 12.535156 7.894531 19.203125.878906 3.011718 3.4375 5.230468 6.546875 5.679687l29.359375 4.191407v34.128906l-29.359375 4.191406c-3.109375.445312-5.667969 2.664062-6.546875 5.679688-1.925781 6.667968-4.574219 13.105468-7.894531 19.199218-1.507813 2.753906-1.269532 6.136719.617187 8.648438l17.757813 23.6875-24.125 24.128906-23.671875-17.824219c-2.511719-1.886719-5.894531-2.125-8.648438-.617187-6.09375 3.320312-12.535156 5.96875-19.203125 7.894531-3.011718.878906-5.230468 3.4375-5.679687 6.546875l-4.167969 29.375h-34.125l-4.195312-29.359375c-.445313-3.105469-2.664063-5.667969-5.679688-6.542969-6.667969-1.929687-13.105469-4.574218-19.199219-7.898437-2.753906-1.507813-6.136719-1.269531-8.648437.617187l-23.6875 17.757813-24.128906-24.125 17.761718-23.6875c1.886719-2.511719 2.125-5.894531.617188-8.648438-3.324219-6.09375-5.972656-12.535156-7.898438-19.203125-.878906-3.011718-3.4375-5.230468-6.542968-5.679687l-29.335938-4.167969v-34.125l29.359375-4.195312c3.105469-.445313 5.667969-2.664063 6.542969-5.679688 1.929687-6.667969 4.574218-13.105469 7.898437-19.199219 1.507813-2.753906 1.269531-6.136719-.617187-8.648437l-17.757813-23.6875zm0 0"/><path d="m232 32h16v16h-16zm0 0"/><path d="m155.148438 70.457031 11.3125-11.3125 11.316406 11.3125-11.316406 11.316407zm0 0"/><path d="m128 136h16v16h-16zm0 0"/><path d="m155.144531 217.535156 11.3125-11.3125 11.3125 11.3125-11.3125 11.3125zm0 0"/><path d="m232 240h16v16h-16zm0 0"/><path d="m302.21875 217.539062 11.3125-11.3125 11.316406 11.3125-11.316406 11.3125zm0 0"/><path d="m336 136h16v16h-16zm0 0"/><path d="m302.222656 70.464844 11.316406-11.316406 11.3125 11.316406-11.3125 11.3125zm0 0"/></svg>