<svg width="610px" height="650" viewBox="0 0 610 610" version="1.1" xmlns="http://www.w3.org/2000/svg"
     style="float: right;">
    <defs>
        <linearGradient x1="93.3400314%" y1="5.7888905%" x2="12.9002674%" y2="84.419059%" id="linearGradient-2">
            <stop stop-color="#1A2980" offset="0%"></stop>
            <stop stop-color="#26D0CE" offset="100%"></stop>
        </linearGradient>
    </defs>
    <g id="Page-2" fill="none" fill-rule="evenodd">
        <g id="left-first" transform="translate(-1.000000, 0.000000)" fill="url(#linearGradient-2)">
            <path d="M369.229,1.87 C331.97,-6.66 292.354,16.4 254.072,22.87 C217.142,29.11 172.133,19.8 138.434,40.94 C104.735,62.08 93.543,106.67 71.866,137.21 C49.391,168.87 11.396,194.51 2.866,231.77 C-5.664,269.03 17.402,308.65 23.866,346.93 C30.105,383.86 20.795,428.87 41.942,462.57 C63.089,496.27 107.67,507.46 138.209,529.14 C169.868,551.61 195.509,589.61 232.77,598.14 C270.031,606.67 309.645,583.6 347.929,577.14 C384.857,570.9 429.866,580.21 463.566,559.06 C497.266,537.91 508.456,493.34 530.136,462.79 C552.606,431.13 590.606,405.49 599.126,368.23 C607.646,330.97 584.596,291.35 578.126,253.07 C571.886,216.14 581.196,171.13 560.056,137.43 C538.916,103.73 494.326,92.54 463.786,70.86 C432.13,48.39 406.488,10.39 369.229,1.87 Z"
                  id="Shape_2_copy" transform="rotate(133.788 300 300)"></path>
            <animateTransform attributeName="transform" attributeType="XML" type="rotate" from="0 300 300"
                              to="360 300 300" dur="35s" repeatCount="indefinite"></animateTransform>
        </g>
    </g>

</svg>